<svg width="800" height="560" viewBox="0 0 800 560" fill="none" xmlns="http://www.w3.org/2000/svg">
  <rect width="800" height="560" rx="40" fill="#07111F"/>
  <rect x="114" y="88" width="576" height="394" rx="28" fill="#0F172A" stroke="#59A8FF" stroke-width="2"/>
  <rect x="150" y="138" width="500" height="44" rx="16" fill="#11213F"/>
  <rect x="150" y="212" width="220" height="220" rx="24" fill="#101B32"/>
  <rect x="392" y="212" width="258" height="96" rx="24" fill="#11213F"/>
  <rect x="392" y="326" width="258" height="106" rx="24" fill="#11213F"/>
  <rect x="176" y="242" width="170" height="14" rx="7" fill="#5DD2FF"/>
  <rect x="176" y="276" width="136" height="12" rx="6" fill="#7C8CA7"/>
  <rect x="176" y="302" width="120" height="12" rx="6" fill="#7C8CA7"/>
  <rect x="420" y="242" width="176" height="12" rx="6" fill="#59A8FF"/>
  <rect x="420" y="268" width="132" height="12" rx="6" fill="#7C8CA7"/>
  <rect x="420" y="358" width="160" height="12" rx="6" fill="#29D4C5"/>
  <rect x="420" y="384" width="96" height="12" rx="6" fill="#7C8CA7"/>
  <circle cx="610" cy="160" r="18" fill="#7C4DFF"/>
</svg>